<svg width="200" height="200" viewBox="0 0 200 200" fill="none" xmlns="http://www.w3.org/2000/svg">
<path d="M141.081 74.8646C148.378 85.4052 152.973 98.1078 152.973 111.621C152.973 146.756 124.324 175.135 89.4595 175.135C54.5946 175.135 25.946 146.756 25.946 111.621C25.946 76.7564 54.5946 48.3781 89.4595 48.3781C103.243 48.3781 115.946 52.7025 126.216 59.9998L139.189 47.297C125.405 36.4862 108.108 30.27 89.4595 30.27C44.5946 30.27 8.10815 66.7564 8.10815 111.621C8.10815 156.756 44.5946 193.243 89.4595 193.243C134.324 193.243 170.811 156.756 170.811 111.621C170.811 92.9727 164.595 75.9457 154.054 62.1619L141.081 74.8646Z" fill="#FD7E01"/>
<path d="M131.622 84.3246L122.162 94.0543C124.865 99.1894 126.487 105.406 126.487 111.622C126.487 132.162 110 148.919 89.4595 148.919C68.9189 148.919 52.4324 132.162 52.4324 111.622C52.4324 91.3516 68.9189 74.5948 89.4595 74.5948C95.9459 74.5948 101.892 76.2164 107.297 79.1894L116.757 69.4597C108.919 64.5949 99.4595 61.6218 89.4595 61.6218C61.6216 61.6218 39.1892 84.0543 39.1892 111.622C39.1892 139.46 61.6216 161.892 89.4595 161.892C117.297 161.892 139.73 139.46 139.73 111.622C139.73 101.622 136.757 92.1624 131.622 84.3246Z" fill="#FD7E01"/>
<path d="M110.811 111.621C110.811 123.513 101.352 133.243 89.4598 133.243C77.5679 133.243 67.8381 123.513 67.8381 111.621C67.8381 99.7295 77.5679 90.27 89.4598 90.27C101.352 90.27 110.811 99.7295 110.811 111.621Z" fill="#FD7E01"/>
<path d="M192.433 27.0271L178.108 22.7027L174.595 8.10815L148.379 32.9731L151.081 44.5946L86.7571 108.919L92.1625 114.324L157.298 49.1893L166.217 51.892L192.433 27.0271Z" fill="#FD7E01"/>
</svg>
