<svg width="31" height="37" viewBox="0 0 31 37" fill="none" xmlns="http://www.w3.org/2000/svg">
<path d="M15.3216 1.39288C19.0157 1.39288 22.5585 2.86035 25.1706 5.47247C27.7827 8.08458 29.2502 11.6274 29.2502 15.3215C29.2502 23.0131 15.3216 35.4405 15.3216 35.4405C15.3216 35.4405 1.39307 23.0131 1.39307 15.3215C1.39307 11.6274 2.86054 8.08458 5.47265 5.47247C8.08476 2.86035 11.6276 1.39288 15.3216 1.39288Z" stroke="white" stroke-width="2.78571" stroke-linecap="round" stroke-linejoin="round"/>
<path d="M15.3216 19.9643C17.8857 19.9643 19.9644 17.8856 19.9644 15.3214C19.9644 12.7573 17.8857 10.6786 15.3216 10.6786C12.7574 10.6786 10.6787 12.7573 10.6787 15.3214C10.6787 17.8856 12.7574 19.9643 15.3216 19.9643Z" stroke="white" stroke-width="2.78571" stroke-linecap="round" stroke-linejoin="round"/>
</svg>
